<?xml version="1.0" standalone="no"?>
<!DOCTYPE svg PUBLIC "-//W3C//DTD SVG 20010904//EN"
 "http://www.w3.org/TR/2001/REC-SVG-20010904/DTD/svg10.dtd">
<svg version="1.0" xmlns="http://www.w3.org/2000/svg"
 width="120.000000pt" height="120.000000pt" viewBox="0 0 200.000000 200.000000"
 preserveAspectRatio="xMidYMid meet">
<metadata>
Created by potrace 1.16, written by Peter Selinger 2001-2019
</metadata>
<g transform="translate(0.000000,200.000000) scale(0.100000,-0.100000)"
fill="#000000" stroke="none">
<path d="M130 1985 c-21 -25 -80 -156 -83 -184 -2 -15 -7 -33 -13 -41 -30 -47
-34 -92 -33 -372 0 -173 4 -290 9 -293 6 -4 10 6 11 22 l1 28 13 -30 13 -30 0
39 c0 21 5 43 12 49 9 9 11 5 5 -21 -6 -28 -3 -36 15 -49 16 -11 21 -23 18
-44 -5 -31 18 -50 28 -24 4 8 14 15 24 15 10 0 23 7 30 15 13 16 32 11 28 -8
-1 -7 4 -23 12 -37 15 -26 21 -110 8 -110 -5 0 -8 17 -8 38 0 31 -19 86 -20
57 0 -5 -4 -4 -9 4 -7 10 -11 5 -16 -18 -9 -40 -40 -42 -53 -3 l-9 27 -12 -37
c-8 -25 -17 -35 -27 -31 -7 3 -12 8 -10 12 2 3 -4 22 -15 41 l-18 35 -1 -29
c0 -33 49 -128 62 -120 5 3 7 13 4 21 -4 11 -2 13 9 10 8 -4 17 -2 20 3 4 6
13 10 21 10 10 0 13 -7 8 -26 -5 -20 -2 -26 15 -31 11 -3 21 -13 21 -23 0 -10
9 -20 20 -23 28 -7 26 -45 -2 -49 -13 -2 -34 -2 -46 1 -21 3 -23 8 -17 38 6
33 5 33 -22 27 -15 -4 -29 -11 -31 -16 -9 -20 -22 -3 -50 65 -17 39 -33 86
-35 102 -3 17 -4 -1 -2 -39 1 -38 8 -72 14 -76 9 -5 8 -18 -3 -51 -12 -33 -15
-79 -13 -185 2 -159 8 -174 65 -174 l35 0 -28 25 c-23 23 -26 31 -20 63 4 20
8 37 8 37 1 0 12 9 25 20 l23 19 24 -29 c23 -28 24 -29 25 -8 1 58 44 21 55
-47 3 -25 9 -53 12 -63 4 -15 0 -18 -19 -15 -15 2 -23 9 -22 21 1 9 0 17 -3
17 -16 0 -75 -56 -124 -119 l-59 -74 0 -158 0 -159 93 0 94 0 -19 73 c-28 107
-34 240 -14 310 9 31 21 59 26 62 6 4 22 -17 35 -47 55 -116 100 -183 116
-172 5 3 6 -1 3 -9 -5 -15 104 -134 174 -190 l34 -27 400 0 c370 0 402 1 414
18 13 16 13 16 14 0 0 -16 10 -18 72 -18 l72 0 -42 36 c-23 19 -42 39 -42 43
0 4 20 28 45 54 26 28 63 85 89 139 47 98 101 246 92 255 -13 13 -38 -8 -33
-27 5 -18 -3 -24 -24 -22 -4 1 -5 -9 -3 -21 2 -12 2 -16 -2 -9 -9 20 -24 14
-24 -11 0 -13 -5 -28 -12 -35 -7 -7 -9 -12 -5 -12 4 0 -1 -8 -10 -18 -10 -10
-25 -16 -34 -14 -9 2 -25 -8 -37 -22 -21 -28 -34 -33 -30 -14 2 6 -5 14 -14
16 -26 5 -23 -32 4 -58 21 -19 21 -20 2 -20 -11 0 -40 -20 -65 -45 -39 -38
-54 -46 -95 -50 -38 -4 -46 -3 -36 7 16 16 15 28 -3 28 -8 0 -15 -5 -15 -10 0
-6 -11 -8 -25 -4 -15 4 -25 2 -25 -4 0 -6 8 -13 18 -15 16 -4 16 -5 0 -6 -10
0 -18 -5 -18 -11 0 -5 -7 -10 -15 -10 -18 0 -20 16 -3 23 9 4 10 6 1 6 -6 1
-19 -6 -27 -15 -15 -14 -16 -14 -16 0 0 9 5 16 10 16 6 0 10 5 10 10 0 13 -37
13 -42 0 -1 -5 -29 -11 -60 -13 -32 -2 -55 -1 -53 2 3 2 -9 11 -26 18 -34 14
-53 9 -29 -8 12 -8 9 -10 -12 -6 -21 3 -25 1 -20 -12 4 -13 2 -13 -15 2 -16
14 -22 15 -26 5 -4 -10 -8 -10 -18 3 -18 20 -95 79 -104 79 -15 0 -74 53 -69
62 3 5 -3 12 -15 15 -12 3 -21 10 -21 15 0 5 10 6 23 3 17 -5 19 -4 7 4 -13
10 -13 12 0 22 12 8 11 9 -6 4 -22 -6 -29 -1 -70 47 -24 29 -36 66 -23 74 5 3
9 10 9 15 0 6 -5 7 -10 4 -19 -12 -29 38 -14 68 14 25 13 27 -6 27 -11 0 -20
-7 -20 -16 0 -8 -5 -12 -10 -9 -7 4 -7 11 -2 18 14 18 23 49 13 42 -10 -5 -41
21 -41 34 0 5 12 6 28 3 27 -5 27 -5 8 16 -15 17 -17 29 -11 59 5 21 7 45 6
53 -2 13 -1 13 8 0 13 -19 17 -13 25 31 5 26 2 40 -9 49 -8 7 -15 19 -15 27 0
7 -7 16 -15 19 -8 4 -15 10 -15 16 0 5 -16 25 -35 45 -19 20 -32 39 -30 43 3
4 -2 10 -9 13 -8 3 -16 18 -18 34 -2 20 -9 28 -23 28 -15 0 -19 6 -17 23 2 12
-2 22 -7 22 -6 0 -11 -7 -11 -15 0 -8 -5 -15 -11 -15 -5 0 -7 -5 -4 -11 11
-17 -3 -56 -21 -56 -10 0 -14 7 -11 19 6 20 -8 25 -16 6 -3 -7 -6 4 -6 25 -1
21 6 51 14 66 18 35 8 47 -18 24 -22 -20 -16 -2 11 29 8 9 12 23 10 29 -5 15
30 59 48 59 7 0 14 26 18 69 7 71 21 95 52 89 12 -2 20 4 22 17 3 11 8 23 13
26 5 3 1 13 -10 23 -17 15 -19 15 -25 1 -3 -9 -2 -13 4 -10 6 3 10 1 10 -4 0
-6 -8 -11 -17 -11 -10 -1 -42 -11 -72 -24 -30 -13 -62 -21 -73 -18 -18 4 -18
6 -2 23 9 11 13 19 9 19 -4 0 0 9 10 20 10 11 14 20 10 20 -12 0 45 54 72 68
29 16 34 15 26 -4 -5 -14 -3 -15 18 -3 13 8 29 14 36 14 6 0 24 12 40 26 43
38 106 79 121 79 7 0 20 6 27 13 36 32 45 36 58 31 8 -3 20 2 27 10 7 9 17 13
22 10 5 -3 17 1 26 9 10 9 32 15 51 15 21 -1 39 5 46 15 7 10 20 17 29 17 9 0
19 7 22 15 4 8 11 12 16 9 6 -4 5 -10 -3 -15 -8 -4 1 -7 23 -5 19 2 40 6 46
10 6 3 17 0 24 -8 8 -8 23 -16 34 -18 17 -5 17 -6 -5 -15 -18 -7 -21 -12 -12
-18 7 -4 16 -3 20 2 3 6 17 14 29 18 21 6 23 4 17 -14 -5 -15 -2 -21 10 -21 9
0 26 -9 37 -20 14 -13 29 -18 42 -14 17 4 18 3 6 -5 -13 -9 -12 -12 8 -17 26
-7 29 -19 6 -28 -8 -3 -12 -10 -9 -16 4 -6 11 -8 16 -5 5 4 16 -1 25 -9 8 -9
22 -16 30 -16 8 0 14 -6 14 -13 0 -17 105 -45 155 -42 22 2 45 0 50 -4 18 -14
46 -21 40 -11 -3 6 1 10 9 10 9 0 16 -4 16 -10 0 -5 7 -10 15 -10 8 0 15 9 15
20 0 11 5 20 10 20 6 0 10 -4 10 -9 0 -5 9 -7 20 -4 11 3 20 14 20 24 0 13 5
17 17 12 11 -4 14 -3 9 5 -4 7 -1 12 8 12 8 0 21 -10 27 -22 15 -27 21 -118 9
-118 -5 0 -7 -11 -4 -25 2 -15 1 -31 -3 -38 -4 -6 -7 -40 -6 -74 1 -35 -1 -63
-5 -63 -4 0 -6 -23 -6 -50 1 -47 0 -50 -15 -35 -23 20 -48 21 -32 1 17 -20
-26 -29 -53 -10 -11 7 -28 14 -38 14 -10 0 -18 7 -18 15 0 8 4 15 8 15 5 0 9
7 9 15 0 8 -5 15 -11 15 -6 0 6 11 26 25 20 14 42 25 47 25 6 0 11 4 11 8 0 8
-59 16 -110 14 -14 0 -28 5 -32 11 -5 8 -10 8 -20 0 -14 -12 -68 -6 -68 8 0 5
-11 4 -25 -1 -20 -7 -25 -6 -25 5 0 9 -14 0 -35 -20 -37 -37 -69 -45 -79 -19
-5 14 -7 14 -22 0 -11 -12 -14 -29 -10 -68 8 -95 30 -188 43 -188 7 0 13 -6
13 -12 0 -10 3 -9 9 1 5 7 7 21 6 30 -1 9 0 10 2 3 3 -7 9 -9 15 -6 7 4 8 2 4
-4 -4 -7 -2 -20 4 -29 9 -14 10 -9 7 25 -6 48 8 62 65 62 25 0 29 3 18 10 -13
8 -8 13 10 12 111 -9 178 -30 165 -52 -3 -5 -1 -11 5 -15 5 -3 10 -2 10 3 0 5
14 6 31 4 23 -3 30 -1 25 7 -6 9 0 10 21 5 37 -9 42 -14 13 -14 -21 0 -22 -1
-8 -17 8 -10 18 -31 22 -46 4 -15 10 -26 14 -23 8 5 7 -9 -4 -104 -6 -43 -6
-43 -19 -21 l-12 24 -7 -28 c-5 -18 -11 -25 -22 -21 -10 4 -19 -3 -27 -22 -7
-15 -20 -39 -30 -54 -13 -19 -17 -36 -12 -58 7 -30 -7 -43 -19 -17 -3 6 -3 1
0 -12 5 -20 3 -23 -11 -17 -15 5 -16 4 -5 -9 9 -11 16 -13 23 -6 7 7 15 2 24
-16 16 -32 17 -50 1 -56 -9 -4 -7 -6 3 -6 16 -1 19 -27 5 -49 -4 -7 -2 -12 4
-12 6 0 15 11 20 24 5 13 16 28 25 33 12 7 16 26 16 83 0 43 4 68 9 61 10 -18
31 -5 23 15 -7 18 16 94 29 94 4 0 9 -37 10 -82 0 -46 3 -68 5 -50 2 17 8 32
13 32 4 0 11 18 15 40 4 22 10 38 14 37 3 -1 17 8 29 19 17 16 22 31 20 57 -1
20 -4 34 -7 31 -3 -2 -11 6 -18 18 -7 13 -12 17 -13 11 0 -7 -7 -13 -15 -13
-11 0 -15 11 -15 38 0 42 13 68 28 58 12 -7 17 37 28 209 4 61 9 135 11 165 3
30 6 102 8 159 2 60 9 114 16 128 11 20 11 26 0 32 -11 7 -11 10 0 14 9 4 11
8 4 14 -6 4 -12 21 -13 37 -1 16 -7 35 -13 42 -9 11 -8 14 3 14 19 0 12 50 -9
67 -9 7 -11 13 -3 18 5 3 8 11 5 16 -4 5 -332 9 -829 9 -708 0 -825 -2 -836
-15z"/>
<path d="M685 1381 c-3 -5 5 -13 17 -17 21 -6 21 -7 3 -20 -18 -13 -17 -14 11
-14 35 0 61 -14 45 -24 -6 -4 -39 -12 -73 -17 -35 -6 -75 -16 -90 -24 -16 -8
-30 -9 -34 -4 -3 5 -11 9 -17 8 -9 0 -9 -2 0 -5 7 -3 9 -12 6 -20 -4 -11 -16
-6 -53 21 -68 50 -70 30 -2 -23 31 -25 49 -42 39 -39 -11 4 -31 9 -45 12 -21
3 -19 2 6 -7 17 -6 32 -15 32 -21 0 -13 49 1 77 23 21 16 39 18 136 16 62 -1
132 -5 156 -9 36 -6 41 -4 31 8 -10 12 -7 12 19 2 26 -9 29 -15 24 -40 -5 -23
-2 -29 16 -34 11 -3 21 -9 21 -14 0 -5 9 -4 20 3 11 7 20 22 20 33 0 12 4 25
10 31 5 5 12 42 16 81 l7 72 -35 -5 c-29 -5 -36 -2 -46 18 -7 13 -10 15 -7 4
4 -15 2 -17 -12 -10 -10 4 -45 9 -77 10 -33 2 -70 5 -84 9 -17 4 -22 2 -16 -7
5 -10 4 -11 -7 0 -15 14 -105 17 -114 3z"/>
<path d="M950 952 c-28 -28 -50 -53 -50 -57 0 -3 -8 -15 -18 -25 -23 -25 -62
-98 -62 -116 0 -17 22 -18 38 -2 20 20 44 18 74 -7 16 -14 35 -22 44 -18 10 4
17 -2 21 -16 6 -23 18 -27 29 -10 3 6 0 15 -7 20 -8 5 -11 9 -7 9 4 0 22 -9
40 -20 18 -11 43 -20 54 -20 12 0 27 -7 35 -16 8 -10 21 -13 36 -9 19 4 23 2
23 -20 0 -31 15 -33 17 -3 1 13 10 29 20 36 24 17 89 6 114 -19 31 -31 58 -80
52 -95 -3 -8 0 -14 6 -14 21 0 24 32 7 60 -22 39 -20 62 3 27 17 -26 19 -27
35 -12 23 24 19 46 -14 78 -16 16 -26 35 -23 43 3 8 0 14 -7 14 -7 0 -10 7 -6
16 9 22 -23 45 -45 33 -13 -7 -18 -3 -23 14 -3 12 -15 33 -27 46 -20 21 -24
39 -28 114 -2 35 -35 14 -43 -27 -7 -31 -4 -45 12 -71 24 -38 25 -45 6 -45 -8
0 -16 -4 -18 -9 -1 -5 -42 -12 -89 -15 -80 -5 -87 -4 -112 19 -14 14 -31 25
-37 25 -5 0 -10 6 -11 13 -1 6 -4 1 -8 -13 -8 -29 -45 -42 -39 -14 1 9 20 26
41 37 34 17 37 22 37 62 0 24 -5 47 -10 50 -6 4 -33 -16 -60 -43z"/>
<path d="M1273 603 c-20 -8 -15 -33 6 -33 11 0 23 -4 26 -10 3 -5 4 -10 1 -10
-2 0 -12 -3 -22 -7 -10 -3 -15 -2 -12 3 7 10 -29 17 -87 15 -94 -2 -111 -2
-135 0 -14 1 -54 -4 -88 -11 -49 -10 -70 -10 -89 -1 -21 10 -29 9 -44 -5 -11
-10 -22 -14 -26 -11 -3 4 0 7 7 7 7 0 11 2 8 5 -7 7 -68 -25 -68 -36 0 -5 6
-9 13 -9 9 0 8 -3 -2 -9 -22 -14 4 -21 40 -10 36 10 232 13 411 5 77 -3 114
-9 132 -21 26 -17 26 -17 40 16 17 41 12 53 -21 44 -15 -3 -22 -2 -19 4 4 5 1
13 -5 17 -8 4 -7 9 2 15 10 6 11 9 2 9 -7 0 -13 8 -14 18 0 10 -3 12 -6 5 -7
-18 -23 -16 -23 2 0 15 -6 17 -27 8z"/>
<path d="M896 443 c-5 -11 -1 -22 10 -30 10 -7 14 -13 8 -14 -5 0 12 -9 38
-19 29 -12 68 -19 100 -18 57 1 120 -15 137 -36 13 -16 149 -20 187 -6 20 8
25 13 15 19 -10 7 -9 9 3 14 21 8 9 37 -15 37 -10 0 -23 8 -28 18 -9 14 -12
15 -20 2 -8 -12 -14 -9 -36 14 -18 20 -33 27 -48 23 -12 -3 -33 -8 -47 -11
-30 -8 -165 -10 -177 -3 -4 3 -30 8 -57 11 -27 4 -53 9 -57 11 -4 3 -10 -3
-13 -12z"/>
</g>
</svg>
